<svg width="20" height="20" viewBox="0 0 20 20" fill="none" xmlns="http://www.w3.org/2000/svg">
<path d="M4.16699 10.8335H6.66699M1.66699 7.50016L3.33366 8.3335L4.39253 5.15689C4.61109 4.50121 4.72037 4.17336 4.92307 3.93098C5.10206 3.71694 5.33192 3.55126 5.59158 3.44914C5.88562 3.3335 6.2312 3.3335 6.92235 3.3335H13.0783C13.7695 3.3335 14.115 3.3335 14.4091 3.44914C14.6687 3.55126 14.8986 3.71694 15.0776 3.93098C15.2803 4.17336 15.3896 4.50121 15.6081 5.15689L16.667 8.3335L18.3337 7.50016M13.3337 10.8335H15.8337M5.66699 8.3335H14.3337C15.7338 8.3335 16.4339 8.3335 16.9686 8.60598C17.439 8.84566 17.8215 9.22811 18.0612 9.69852C18.3337 10.2333 18.3337 10.9334 18.3337 12.3335V14.5835C18.3337 14.9707 18.3337 15.1643 18.3016 15.3253C18.1701 15.9865 17.6533 16.5033 16.9921 16.6348C16.8311 16.6668 16.6375 16.6668 16.2503 16.6668H15.8337C14.9132 16.6668 14.167 15.9206 14.167 15.0002C14.167 14.77 13.9804 14.5835 13.7503 14.5835H6.25033C6.02021 14.5835 5.83366 14.77 5.83366 15.0002C5.83366 15.9206 5.08747 16.6668 4.16699 16.6668H3.75033C3.36311 16.6668 3.16951 16.6668 3.00851 16.6348C2.34736 16.5033 1.83053 15.9865 1.69902 15.3253C1.66699 15.1643 1.66699 14.9707 1.66699 14.5835V12.3335C1.66699 10.9334 1.66699 10.2333 1.93948 9.69852C2.17916 9.22811 2.56161 8.84566 3.03202 8.60598C3.5668 8.3335 4.26686 8.3335 5.66699 8.3335Z" stroke="#B54708" stroke-width="1.2" stroke-linecap="round" stroke-linejoin="round"/>
</svg>
