<svg width="20" height="20" viewBox="0 0 20 20" fill="none" xmlns="http://www.w3.org/2000/svg">
<path d="M11.2744 6.95972C10.7974 7.29979 10.2136 7.49984 9.58317 7.49984C7.97234 7.49984 6.6665 6.194 6.6665 4.58317C6.6665 2.97234 7.97234 1.6665 9.58317 1.6665C10.6273 1.6665 11.5433 2.21519 12.0586 3.03996M4.99984 16.7391H7.17508C7.45869 16.7391 7.74057 16.7729 8.01551 16.8404L10.3139 17.3989C10.8126 17.5204 11.3322 17.5322 11.8361 17.4343L14.3773 16.9399C15.0486 16.8092 15.6662 16.4877 16.1501 16.0169L17.9481 14.2679C18.4615 13.7693 18.4615 12.9602 17.9481 12.4607C17.4858 12.011 16.7538 11.9604 16.2308 12.3418L14.1353 13.8705C13.8352 14.0899 13.4701 14.208 13.0945 14.208H11.0711L12.3591 14.208C13.085 14.208 13.6731 13.6359 13.6731 12.9298V12.6741C13.6731 12.0878 13.2628 11.5765 12.6782 11.4347L10.6903 10.9513C10.3668 10.8728 10.0355 10.8332 9.70245 10.8332C8.89845 10.8332 7.44308 11.4989 7.44308 11.4989L4.99984 12.5206M16.6665 5.4165C16.6665 7.02733 15.3607 8.33317 13.7498 8.33317C12.139 8.33317 10.8332 7.02733 10.8332 5.4165C10.8332 3.80567 12.139 2.49984 13.7498 2.49984C15.3607 2.49984 16.6665 3.80567 16.6665 5.4165ZM1.6665 12.1665L1.6665 16.9998C1.6665 17.4665 1.6665 17.6999 1.75733 17.8782C1.83723 18.035 1.96471 18.1624 2.12151 18.2423C2.29977 18.3332 2.53313 18.3332 2.99984 18.3332H3.6665C4.13321 18.3332 4.36657 18.3332 4.54483 18.2423C4.70163 18.1624 4.82911 18.035 4.90901 17.8782C4.99984 17.6999 4.99984 17.4665 4.99984 16.9998V12.1665C4.99984 11.6998 4.99984 11.4664 4.90901 11.2882C4.82911 11.1314 4.70163 11.0039 4.54483 10.924C4.36657 10.8332 4.13321 10.8332 3.6665 10.8332L2.99984 10.8332C2.53313 10.8332 2.29977 10.8332 2.12151 10.924C1.96471 11.0039 1.83723 11.1314 1.75733 11.2882C1.6665 11.4664 1.6665 11.6998 1.6665 12.1665Z" stroke="#363F72" stroke-width="1.2" stroke-linecap="round" stroke-linejoin="round"/>
</svg>
