<svg width="20" height="20" viewBox="0 0 20 20" fill="none" xmlns="http://www.w3.org/2000/svg">
<path d="M10.8196 2.30345C10.5268 2.07574 10.3804 1.96189 10.2188 1.91812C10.0761 1.87951 9.92581 1.87951 9.78319 1.91812C9.62155 1.96189 9.47516 2.07574 9.18239 2.30345L3.53047 6.69939C3.15266 6.99324 2.96376 7.14017 2.82767 7.32417C2.70711 7.48716 2.61731 7.67077 2.56267 7.866C2.50098 8.08639 2.50098 8.3257 2.50098 8.80433V14.8334C2.50098 15.7669 2.50098 16.2336 2.68263 16.5901C2.84242 16.9037 3.09739 17.1587 3.41099 17.3185C3.76751 17.5001 4.23422 17.5001 5.16764 17.5001H6.83431C7.06766 17.5001 7.18434 17.5001 7.27347 17.4547C7.35187 17.4147 7.41562 17.351 7.45556 17.2726C7.50098 17.1835 7.50098 17.0668 7.50098 16.8334V11.3334C7.50098 10.8667 7.50098 10.6334 7.5918 10.4551C7.6717 10.2983 7.79918 10.1708 7.95598 10.0909C8.13424 10.0001 8.3676 10.0001 8.83431 10.0001H11.1676C11.6344 10.0001 11.8677 10.0001 12.046 10.0909C12.2028 10.1708 12.3303 10.2983 12.4101 10.4551C12.501 10.6334 12.501 10.8667 12.501 11.3334V16.8334C12.501 17.0668 12.501 17.1835 12.5464 17.2726C12.5863 17.351 12.6501 17.4147 12.7285 17.4547C12.8176 17.5001 12.9343 17.5001 13.1676 17.5001H14.8343C15.7677 17.5001 16.2344 17.5001 16.591 17.3185C16.9046 17.1587 17.1595 16.9037 17.3193 16.5901C17.501 16.2336 17.501 15.7669 17.501 14.8334V8.80433C17.501 8.3257 17.501 8.08639 17.4393 7.866C17.3846 7.67077 17.2948 7.48716 17.1743 7.32417C17.0382 7.14017 16.8493 6.99324 16.4715 6.69939L10.8196 2.30345Z" stroke="#344054" stroke-width="1.25" stroke-linecap="round" stroke-linejoin="round"/>
</svg>
