<svg width="16" height="22" viewBox="0 0 16 22" fill="none" xmlns="http://www.w3.org/2000/svg">
<path d="M8.07129 0.925781C9.71104 0.943093 11.2508 1.58343 12.4219 2.73828C13.631 3.93085 14.2969 5.52353 14.2969 7.22168C14.2968 8.23079 14.0656 9.19543 13.6084 10.0879V10.0889C13.603 10.0994 13.597 10.1097 13.5908 10.1201H13.5898L11.3604 13.8564L12.5957 14.4062H12.5947C12.7203 14.4598 12.8252 14.5584 12.8857 14.6865L15.5225 20.2637C15.624 20.4786 15.5811 20.7343 15.415 20.9043C15.3058 21.0159 15.1584 21.0751 15.0088 21.0752C14.9698 21.0752 14.9303 21.0707 14.8916 21.0625L14.7773 21.0254L11.5049 19.5684L8.23242 21.0254C8.08524 21.0909 7.91671 21.0909 7.76953 21.0254L4.49707 19.5684L1.22461 21.0254C1.00749 21.122 0.75309 21.0741 0.586914 20.9043C0.420721 20.7344 0.377939 20.4785 0.479492 20.2637L3.11621 14.6865C3.17436 14.5635 3.2751 14.4655 3.39941 14.4102L4.64062 13.8564L2.41113 10.1201C2.40495 10.1097 2.39904 10.0986 2.39355 10.0879C1.99397 9.3077 1.76173 8.44141 1.71387 7.56152L1.70508 7.18359C1.71488 5.53283 2.36516 3.9726 3.53613 2.79199C4.70719 1.61146 6.26164 0.948673 7.91211 0.925781C7.96505 0.925027 8.0184 0.925174 8.07129 0.925781ZM9.33691 17.249C9.05372 17.7237 8.5537 18.0078 8.00098 18.0078C7.4482 18.0078 6.94825 17.7237 6.66504 17.249L5.22754 14.8398L4.05273 15.3623L2.16211 19.3633L4.26562 18.4268C4.41277 18.3613 4.58136 18.3613 4.72852 18.4268L8.00098 19.8838L11.2734 18.4268C11.4206 18.3613 11.5892 18.3613 11.7363 18.4268L13.8389 19.3633L11.9463 15.3613L10.7734 14.8398L9.33691 17.249ZM7.92773 2.0625C5.14016 2.10111 2.85828 4.40201 2.8418 7.19043C2.83689 8.02239 3.02343 8.81652 3.39648 9.55176L7.6416 16.667C7.75121 16.8507 7.92759 16.8711 8.00098 16.8711C8.07424 16.8711 8.25065 16.8507 8.36035 16.667L12.6055 9.55176C12.9737 8.82614 13.1601 8.04254 13.1602 7.22168C13.1602 5.82993 12.615 4.52526 11.624 3.54785C10.6642 2.60121 9.40168 2.07732 8.05762 2.0625C8.01431 2.06206 7.97105 2.06191 7.92773 2.0625ZM8.00098 4.89453C9.28431 4.89453 10.3281 5.93835 10.3281 7.22168C10.328 8.50486 9.28421 9.54887 8.00098 9.54883C6.71779 9.54874 5.674 8.50481 5.67383 7.22168C5.67383 5.93841 6.71768 4.89462 8.00098 4.89453ZM8.00098 6.03125C7.34474 6.03134 6.81055 6.56546 6.81055 7.22168C6.81072 7.87782 7.34489 8.41108 8.00098 8.41113C8.65715 8.41113 9.19123 7.8778 9.19141 7.22168C9.19141 6.56541 8.65725 6.03125 8.00098 6.03125Z" fill="#344054" stroke="#344054" stroke-width="0.15"/>
</svg>
