<svg width="24" height="16" viewBox="0 0 24 16" fill="none" xmlns="http://www.w3.org/2000/svg">
<path d="M14.7725 0.924805C15.7955 0.924812 16.6278 1.75717 16.6279 2.78027V4.84473H20.0234C20.3615 4.84492 20.6581 5.06139 20.7607 5.38379L21.6123 8.05469H23.1553L23.2344 8.05859C23.6249 8.09821 23.9304 8.42919 23.9297 8.83008V12.5381C23.9296 12.9652 23.5824 13.3123 23.1553 13.3125H20.8789C20.6571 14.319 19.7623 15.0752 18.6904 15.0752C17.6186 15.0751 16.7241 14.3184 16.502 13.3125H10.6064C10.3846 14.319 9.48984 15.0752 8.41797 15.0752C7.34616 15.0751 6.45166 14.3184 6.22949 13.3125H5.0459C4.13055 13.3125 3.38574 12.5681 3.38574 11.6523V9.50098H0.555664C0.288753 9.50098 0.0712891 9.28419 0.0712891 9.0166C0.0715459 8.74923 0.288911 8.5332 0.555664 8.5332H7.18262C7.44934 8.53324 7.66576 8.74926 7.66602 9.0166C7.66602 9.28417 7.4495 9.50094 7.18262 9.50098H4.35254V11.6523C4.35254 12.0342 4.66379 12.3447 5.0459 12.3447H6.22949C6.4519 11.339 7.34633 10.583 8.41797 10.583C9.48959 10.583 10.383 11.3394 10.6055 12.3447H15.6602V2.78027C15.66 2.29101 15.2619 1.89266 14.7725 1.89258H5.09473C4.60542 1.89265 4.20717 2.29048 4.20703 2.78027V4.32812H7.18262C7.44941 4.32816 7.66587 4.54408 7.66602 4.81152C7.66602 5.07909 7.4495 5.29586 7.18262 5.2959H0.555664C0.288753 5.2959 0.0712891 5.07911 0.0712891 4.81152C0.071433 4.54406 0.288842 4.32812 0.555664 4.32812H3.23926V2.78027C3.2394 1.7573 4.07171 0.92495 5.09473 0.924805H14.7725ZM8.41797 11.5508C7.71338 11.5508 7.13965 12.1242 7.13965 12.8291C7.13972 13.5342 7.71346 14.1074 8.41797 14.1074C9.12252 14.1074 9.6964 13.534 9.69629 12.8291C9.69629 12.1241 9.12259 11.5508 8.41797 11.5508ZM18.6914 11.5508C17.9868 11.5508 17.4131 12.1241 17.4131 12.8291C17.4132 13.5342 17.9869 14.1074 18.6914 14.1074C19.3955 14.1073 19.9687 13.534 19.9688 12.8291C19.9688 12.1242 19.3959 11.5509 18.6914 11.5508ZM21.7217 12.3447H22.9629V11.1035H21.7217V12.3447ZM16.6279 11.9541C16.9696 11.1501 17.764 10.584 18.6914 10.584C19.6183 10.5841 20.4119 11.1497 20.7539 11.9531V10.9121C20.7539 10.485 21.1018 10.1367 21.5293 10.1367H22.9629V9.02246H18.6523C18.2251 9.02246 17.8771 8.67531 17.877 8.24805V5.81152H16.6279V11.9541ZM18.8447 8.05469H20.5967L19.8818 5.81152H18.8447V8.05469Z" fill="#344054" stroke="#344054" stroke-width="0.15"/>
<path d="M5.74414 6.43164C6.01105 6.43164 6.22754 6.64843 6.22754 6.91602C6.22732 7.18342 6.01092 7.39941 5.74414 7.39941H1.99414C1.72736 7.39941 1.50998 7.18342 1.50977 6.91602C1.50977 6.64843 1.72723 6.43164 1.99414 6.43164H5.74414Z" fill="#344054" stroke="#344054" stroke-width="0.15"/>
<path d="M8.13086 6.43164C8.39766 6.43177 8.61426 6.64851 8.61426 6.91602C8.61404 7.18334 8.39752 7.39928 8.13086 7.39941H7.18262C6.91584 7.39941 6.69846 7.18342 6.69824 6.91602C6.69824 6.64843 6.91571 6.43164 7.18262 6.43164H8.13086Z" fill="#344054" stroke="#344054" stroke-width="0.15"/>
</svg>
