<svg width="16px" height="16px" viewBox="0 0 16 16" fill="none" xmlns="http://www.w3.org/2000/svg" transform="rotate(0) scale(1, 1)">
<path d="M9.45898 10.9248C9.75306 10.9248 9.99018 11.1429 9.99023 11.4307C9.99023 11.6925 9.75317 11.9052 9.49609 11.9355L9.4873 11.9375V11.9365H3.46484C3.17071 11.9365 2.93262 11.7185 2.93262 11.4307C2.93267 11.1429 3.17075 10.9248 3.46484 10.9248H9.45898Z" fill="#344054" stroke="#344054" stroke-width="0.15"/>
<path d="M1.17969 10.9248C1.47374 10.9249 1.71088 11.1429 1.71094 11.4307C1.71094 11.7184 1.47377 11.9365 1.17969 11.9365H0.780273C0.486142 11.9365 0.248047 11.7185 0.248047 11.4307C0.248104 11.1429 0.486178 10.9248 0.780273 10.9248H1.17969Z" fill="#344054" stroke="#344054" stroke-width="0.15"/>
<path d="M7.38379 9.27148C7.67105 9.27163 7.91504 9.45724 7.91504 9.75098C7.91479 10.0384 7.67761 10.2557 7.38379 10.2559H3.78711C3.4997 10.2559 3.25488 10.0712 3.25488 9.77734C3.25494 9.48959 3.49301 9.27148 3.78711 9.27148H7.38379Z" fill="#344054" stroke="#344054" stroke-width="0.15"/>
<path d="M1.50195 9.27148C1.78932 9.27153 2.0332 9.45715 2.0332 9.75098C2.03296 10.0385 1.79588 10.2558 1.50195 10.2559H1.10254C0.815126 10.2559 0.570312 10.0712 0.570312 9.77734C0.57037 9.48959 0.808443 9.27148 1.10254 9.27148H1.50195Z" fill="#344054" stroke="#344054" stroke-width="0.15"/>
<path d="M14.3369 0.924805C15.0859 0.924805 15.668 1.64518 15.668 2.50781V13.4922C15.668 13.7302 15.6251 13.9436 15.542 14.1553C15.6699 14.2358 15.752 14.3851 15.752 14.5693C15.7519 14.8396 15.5739 15.0752 15.3184 15.0752H2.08984C1.97038 15.0751 1.86141 15.0043 1.78516 14.9092C1.70788 14.8126 1.65625 14.6812 1.65625 14.542C1.65639 14.2719 1.83454 14.0363 2.08984 14.0361H14.3369C14.5973 14.0361 14.8232 13.7874 14.8232 13.4385V5.67871H10.2402V7.43457C10.2402 7.61745 10.1631 7.77567 10.0293 7.87207L10.0244 7.87598C9.97965 7.90284 9.91816 7.94043 9.82812 7.94043C9.79645 7.94043 9.75957 7.94068 9.72168 7.93164C9.68109 7.9219 9.64307 7.90252 9.60254 7.87012L8.23535 6.80273L6.86914 7.87109L6.86816 7.87012C6.80219 7.9313 6.72699 7.96636 6.64746 7.9707C6.56607 7.97512 6.48757 7.94813 6.41992 7.89941C6.28624 7.80307 6.21007 7.6446 6.20996 7.46191V5.70605H1.62695V7.21875C1.62695 7.48908 1.44792 7.72461 1.19238 7.72461C0.93711 7.72431 0.758789 7.4889 0.758789 7.21875V2.50781C0.758789 1.64527 1.34096 0.924961 2.08984 0.924805H14.3369ZM7.00977 6.55371L7.96582 5.81348L7.96777 5.8125C8.08882 5.72533 8.25144 5.71391 8.38281 5.7793L8.43652 5.8125L8.43945 5.81348L9.39453 6.55371V1.90918H7.00977V6.55371ZM2.08984 1.93652C1.82969 1.93668 1.60468 2.18561 1.60449 2.53418V4.77539H6.1875V1.93652H2.08984ZM10.2402 4.7207H14.8232V2.50781C14.8232 2.15891 14.5973 1.90918 14.3369 1.90918H10.2402V4.7207Z" fill="#344054" stroke="#344054" stroke-width="0.15"/>
</svg>