<svg width="16" height="16" viewBox="0 0 16 16" fill="none" xmlns="http://www.w3.org/2000/svg">
<path fill-rule="evenodd" clip-rule="evenodd" d="M7.33301 1.33398C4.0193 1.33398 1.33301 4.02028 1.33301 7.33398C1.33301 10.6477 4.0193 13.334 7.33301 13.334C8.74968 13.334 10.0517 12.843 11.0781 12.0219L13.5283 14.4721C13.7886 14.7324 14.2107 14.7324 14.4711 14.4721C14.7314 14.2117 14.7314 13.7896 14.4711 13.5292L12.0209 11.0791C12.842 10.0527 13.333 8.75066 13.333 7.33398C13.333 4.02028 10.6467 1.33398 7.33301 1.33398ZM2.66634 7.33398C2.66634 4.75666 4.75568 2.66732 7.33301 2.66732C9.91034 2.66732 11.9997 4.75666 11.9997 7.33398C11.9997 9.91131 9.91034 12.0007 7.33301 12.0007C4.75568 12.0007 2.66634 9.91131 2.66634 7.33398Z" fill="#475467"/>
</svg>
